<svg width="20" height="20" viewBox="0 0 20 20" fill="none" xmlns="http://www.w3.org/2000/svg">
<path d="M11.3505 10.0485L19.6463 1.71244C20.0322 1.32472 20.0322 0.743134 19.6463 0.355412C19.2605 -0.0323102 18.6817 -0.0323102 18.2958 0.355412L10 8.69144L1.70418 0.290792C1.31833 -0.0969305 0.73955 -0.0969305 0.353698 0.290792C-0.0321544 0.678514 -0.0321544 1.2601 0.353698 1.64782L8.64952 10.0485L0.289389 18.3845C-0.096463 18.7722 -0.096463 19.3538 0.289389 19.7415C0.482315 19.9354 0.73955 20 0.996785 20C1.25402 20 1.51125 19.9354 1.70418 19.7415L10 11.4055L18.2958 19.7415C18.4887 19.9354 18.746 20 19.0032 20C19.2605 20 19.5177 19.9354 19.7106 19.7415C20.0965 19.3538 20.0965 18.7722 19.7106 18.3845L11.3505 10.0485Z" fill="white" fill-opacity="0.85"/>
</svg>
