<svg width="16" height="16" viewBox="0 0 16 16" fill="none" xmlns="http://www.w3.org/2000/svg">
<path d="M14.9781 8.57227C15.4901 8.57227 15.9122 8.95831 15.9699 9.45564L15.9766 9.57227V12.5723C15.9766 14.1699 14.7295 15.4759 13.157 15.5672L12.981 15.5723H2.99561C1.40027 15.5723 0.0961982 14.3233 0.00508524 12.7485L0 12.5723V9.57227C0 9.01998 0.44706 8.57227 0.998537 8.57227C1.51062 8.57227 1.93268 8.95831 1.99036 9.45564L1.99707 9.57227V12.5723C1.99707 13.0851 2.38255 13.5078 2.87916 13.5655L2.99561 13.5723H12.981C13.4931 13.5723 13.9151 13.1862 13.9728 12.6889L13.9795 12.5723V9.57227C13.9795 9.01998 14.4266 8.57227 14.9781 8.57227Z" fill="white"/>
<path fill-rule="evenodd" clip-rule="evenodd" d="M7.9884 0.572266C7.43692 0.572266 6.98986 1.01933 6.98986 1.5708V7.57232H3.75197L7.9884 11.815L12.2248 7.57232H8.98694V1.5708C8.98694 1.01933 8.53988 0.572266 7.9884 0.572266Z" fill="white"/>
</svg>
