<svg width="12" height="13" viewBox="0 0 12 13" fill="none" xmlns="http://www.w3.org/2000/svg">
<rect x="3" y="3" width="6" height="1" rx="0.5" fill="white" fill-opacity="0.65"/>
<rect x="3" y="6" width="6" height="1" rx="0.5" fill="white" fill-opacity="0.65"/>
<path fill-rule="evenodd" clip-rule="evenodd" d="M1 1H11V8.5H9C8.17157 8.5 7.5 9.17157 7.5 10V12L1 12V1ZM8.5 11.6354V10C8.5 9.72386 8.72386 9.5 9 9.5H10.7996L8.5 11.6354ZM12 9V1C12 0.447715 11.5523 0 11 0H1C0.447715 0 0 0.447715 0 1V12C0 12.5523 0.447715 13 1 13H8H8.10731C8.35972 13 8.6028 12.9045 8.78776 12.7328L11.6805 10.0467C11.8842 9.85751 12 9.592 12 9.31393V9Z" fill="white" fill-opacity="0.65"/>
</svg>
