<svg width="280" height="79" viewBox="0 0 280 79" fill="none" xmlns="http://www.w3.org/2000/svg">
<mask id="mask0_128_4330" style="mask-type:alpha" maskUnits="userSpaceOnUse" x="0" y="0" width="280" height="79">
<rect width="280" height="79" rx="1" fill="#2E3239"/>
</mask>
<g mask="url(#mask0_128_4330)">
<rect opacity="0.6" x="-97" y="108.5" width="193" height="76.825" rx="10" transform="rotate(-30 -97 108.5)" fill="url(#paint0_linear_128_4330)"/>
<rect opacity="0.6" x="44" y="101.031" width="124.062" height="76.825" rx="10" transform="rotate(-30 44 101.031)" fill="url(#paint1_linear_128_4330)"/>
<rect opacity="0.6" x="141" y="87.0312" width="124.062" height="76.825" rx="10" transform="rotate(-30 141 87.0312)" fill="url(#paint2_linear_128_4330)"/>
<rect x="74" y="39" width="19" height="40" fill="url(#paint3_linear_128_4330)"/>
<rect x="93" y="39" width="19" height="40" fill="url(#paint4_linear_128_4330)"/>
<path d="M74 39.3243L92.8108 35L111.622 39.3243L92.8108 43.6486L74 39.3243Z" fill="#47515E"/>
<g filter="url(#filter0_f_128_4330)">
<path d="M85 39L93 37L101 39L93 41L85 39Z" fill="#36404B"/>
</g>
<path fill-rule="evenodd" clip-rule="evenodd" d="M104.3 27.7911L90.4098 36.6541C89.3647 37.321 87.9892 36.9945 87.3376 35.9248C87.117 35.5625 87 35.1442 87 34.7173L87 18.2824C87 17.0219 87.9984 16 89.23 16C89.6471 16 90.0559 16.1197 90.4098 16.3456L104.3 25.2086C104.996 25.6532 105.209 26.5917 104.775 27.3049C104.655 27.5019 104.492 27.6682 104.3 27.7911Z" fill="url(#paint5_linear_128_4330)"/>
<rect x="141" y="64" width="43.5" height="27" fill="#424C59"/>
<rect x="184" y="64" width="43.5" height="27" fill="#47515E"/>
<path d="M141 64L184.5 54L228 64L184.5 74L141 64Z" fill="#616975"/>
<g filter="url(#filter1_f_128_4330)">
<path d="M163 64L184.5 59L206 64L184.5 69L163 64Z" fill="#4F5762"/>
</g>
<path d="M208 59H173C169.686 59 167 56.3137 167 53V17C167 13.6863 164.314 11 161 11H202C205.314 11 208 13.6863 208 17V53C208 56.3137 208 55 208 59Z" fill="url(#paint6_linear_128_4330)"/>
<path d="M167 17C167 15.4087 166.368 13.8826 165.243 12.7574C164.117 11.6321 162.591 11 161 11C159.409 11 157.883 11.6321 156.757 12.7574C155.632 13.8826 155 15.4087 155 17L161 17H167Z" fill="#252B33"/>
<path fill-rule="evenodd" clip-rule="evenodd" d="M177.243 57.2426C178.368 56.1174 179 54.5913 179 53H202H208H214C214 54.5913 213.368 56.1174 212.243 57.2426C211.117 58.3679 209.591 59 208 59H173C174.591 59 176.117 58.3679 177.243 57.2426Z" fill="#252B33"/>
<rect opacity="0.2" x="176" y="22" width="25" height="3" rx="1.5" fill="white"/>
<rect opacity="0.2" x="176" y="30" width="25" height="3" rx="1.5" fill="white"/>
<rect opacity="0.2" x="176" y="38" width="25" height="3" rx="1.5" fill="white"/>
</g>
<defs>
<filter id="filter0_f_128_4330" x="81" y="33" width="24" height="12" filterUnits="userSpaceOnUse" color-interpolation-filters="sRGB">
<feFlood flood-opacity="0" result="BackgroundImageFix"/>
<feBlend mode="normal" in="SourceGraphic" in2="BackgroundImageFix" result="shape"/>
<feGaussianBlur stdDeviation="2" result="effect1_foregroundBlur_128_4330"/>
</filter>
<filter id="filter1_f_128_4330" x="159" y="55" width="51" height="18" filterUnits="userSpaceOnUse" color-interpolation-filters="sRGB">
<feFlood flood-opacity="0" result="BackgroundImageFix"/>
<feBlend mode="normal" in="SourceGraphic" in2="BackgroundImageFix" result="shape"/>
<feGaussianBlur stdDeviation="2" result="effect1_foregroundBlur_128_4330"/>
</filter>
<linearGradient id="paint0_linear_128_4330" x1="55.1814" y1="110.914" x2="34.7663" y2="141.274" gradientUnits="userSpaceOnUse">
<stop stop-color="#394049"/>
<stop offset="1" stop-color="#2E3034"/>
</linearGradient>
<linearGradient id="paint1_linear_128_4330" x1="141.823" y1="103.445" x2="119.802" y2="124.497" gradientUnits="userSpaceOnUse">
<stop stop-color="#394049"/>
<stop offset="1" stop-color="#2E3034"/>
</linearGradient>
<linearGradient id="paint2_linear_128_4330" x1="238.823" y1="89.4454" x2="216.802" y2="110.497" gradientUnits="userSpaceOnUse">
<stop stop-color="#394049"/>
<stop offset="1" stop-color="#2E3034"/>
</linearGradient>
<linearGradient id="paint3_linear_128_4330" x1="83.5" y1="39" x2="83.5" y2="79" gradientUnits="userSpaceOnUse">
<stop stop-color="#3D4651"/>
<stop offset="1" stop-color="#2E3034"/>
</linearGradient>
<linearGradient id="paint4_linear_128_4330" x1="102.5" y1="39" x2="102.5" y2="79" gradientUnits="userSpaceOnUse">
<stop stop-color="#424C59"/>
<stop offset="1" stop-color="#2E3034"/>
</linearGradient>
<linearGradient id="paint5_linear_128_4330" x1="96" y1="16" x2="96" y2="37" gradientUnits="userSpaceOnUse">
<stop stop-color="#4B5562"/>
<stop offset="1" stop-color="#2D343F"/>
</linearGradient>
<linearGradient id="paint6_linear_128_4330" x1="190" y1="11" x2="190" y2="59" gradientUnits="userSpaceOnUse">
<stop stop-color="#737A85"/>
<stop offset="1" stop-color="#3F4957"/>
</linearGradient>
</defs>
</svg>
