<?xml version="1.0" standalone="no"?>
<svg width="1em"
height="1em"
fill="#fff"
aria-hidden="true"
focusable="false" viewBox="0 0 1024 1024" version="1.1" xmlns="http://www.w3.org/2000/svg">
<path d="M253.44 984.96a120.064 120.064 0 0 1-119.808-119.68V158.72c0-65.792 53.952-119.68 119.808-119.68 65.92 0 119.808 53.888 119.808 119.68v706.56c0 65.792-53.888 119.68-119.808 119.68z m517.12 0a120.064 120.064 0 0 1-119.808-119.68V158.72c0-65.792 53.888-119.68 119.808-119.68 65.92 0 119.808 53.888 119.808 119.68v706.56c0 65.792-53.952 119.68-119.808 119.68z"></path>
</svg>